<?xml version="1.0" encoding="UTF-8"?>
<svg id="Capa_1" xmlns="http://www.w3.org/2000/svg" version="1.1" viewBox="0 0 100 100">
  <!-- Generator: Adobe Illustrator 29.8.2, SVG Export Plug-In . SVG Version: 2.1.1 Build 3)  -->
  <defs>
    <style>
      .st0 {
        fill: #050506;
      }
    </style>
  </defs>
  <path class="st0" d="M31.18,55.68c.29-.13.81-.63.84-.94.16-1.48.43-2.28.73-2.99.58-1.36,2.68-3.55,3.49-4.8.7-1.09,2.23-4.67,2.23-4.67,0,0,.96-3,1.1-4.04.09-.66.16-2.02,0-2.67-.19-.8-.89-2.33-1.36-3.02-.54-.78-1.35-1.88-2.52-2.86-1.47-1.23-4.92-3.08-6.74-3.7-1.27-.43-3.93-1.27-5.27-1.1-.86.11-2.62.19-3.17,1.39-.95,2.05-.14,3.19.31,4.12.4.8,1.6,2.15,2.23,2.78.93.93,2.88,2.7,3.75,3.7.67.77,1.85,2.48,2.28,3.41.35.76.69,2.42.79,3.25.08.73-.03,2.21-.16,2.94-.15.87-.74,2.54-.84,3.41-.08.74.05,2.25.18,2.99.1.55.51,1.61.79,2.1.12.22.48.6.71.71.14.07.49.06.63,0Z"/>
  <path class="st0" d="M39.31,44.56c.56.27,1.51-1.12,1.97-1.55.83-.77,2.76-1.97,3.78-2.46,1.21-.59,3.81-1.42,5.01-2.05,1.06-.55,3.17-1.78,3.93-2.7.49-.6,1.22-2.02,1.36-2.78.24-1.24.15-3.78,0-5.03-.14-1.16-.47-3.5-.84-4.61-.6-1.85-2.02-5.55-3.25-7.05-.79-.97-2.71-2.82-3.93-3.09-.57-.13-1.83,0-2.31.34-.6.43-1.52,1.71-1.68,2.44-.22,1.04.04,3.21.29,4.25.3,1.23,1.24,3.59,1.6,4.8.32,1.08,1,3.25,1.02,4.38.01.62-.15,1.88-.42,2.44-.47.97-2.01,2.54-2.67,3.38-.56.71-1.62,2.21-2.05,3.02-.54,1.03-1.46,3.17-1.81,4.27-.15.48-.45,1.8,0,2.02Z"/>
  <path class="st0" d="M35.09,56.31c.36.22,1.29.25,1.7.16,1.63-.37,4.7-1.79,6.16-2.6,1.36-.75,4.07-2.28,5.29-3.25s3.4-3.04,4.31-4.25c.77-1.03,2.43-3.16,2.6-4.43.06-.5-.06-1.66-.47-1.94-.48-.34-1.79-.17-2.36,0-1.72.5-5.02,1.91-6.61,2.73-1.24.64-3.72,1.93-4.82,2.78s-3.2,2.79-4.01,3.93c-.65.9-1.78,2.86-2.07,3.93-.14.53-.29,1.64-.18,2.18.04.22.28.64.47.76Z"/>
  <path class="st0" d="M41.78,57.09c.05.5,1.28.89,1.78.97,1.16.18,3.51.3,4.68.24,1.23-.07,3.69-.31,4.89-.6,1.53-.37,4.55-1.31,5.95-2.02,1.73-.87,4.99-3.01,6.48-4.25,1.3-1.08,3.78-3.41,4.85-4.72,1.14-1.41,3.21-4.42,4.04-6.03.72-1.4,1.9-4.33,2.39-5.82.52-1.6,1.44-4.85,1.78-6.5.29-1.38.78-4.18.92-5.58.16-1.64.54-4.95.34-6.58-.12-.99-.6-2.99-1.1-3.85-.35-.61-1.45-1.64-2.12-1.84-.77-.23-2.49.06-3.2.45-1.55.85-3.93,3.12-5.27,4.75-1.15,1.4-2.8,4.41-3.28,6.06-.44,1.52-1.08,4.61-1.39,6.16-.28,1.37-.75,4.13-1.1,5.48-.33,1.25-1.07,3.72-1.59,4.9s-1.74,3.53-2.48,4.61c-.81,1.18-2.59,3.43-3.59,4.46-1.14,1.17-3.57,3.37-4.88,4.35-.81.61-2.51,1.72-3.38,2.23-.69.4-2.1,1.13-2.81,1.49-.56.29-1.98,1.02-1.91,1.65Z"/>
  <path class="st0" d="M40.49,59.69c-.51,1.03.79,1.96,1.28,2.44.72.68,2.64,1.4,3.59,1.68,1.46.43,4.41,1.28,5.93,1.47,1.81.23,5.48.44,7.29.18,2.11-.3,6.32-1.35,8.21-2.33,1.31-.69,3.74-2.45,4.75-3.54.61-.67,1.68-2.15,2.07-2.96.48-.99,1.2-3.09,1.42-4.17.16-.8.02-2.32-.45-2.88-.26-.32-.83-.69-1.52-.68-1.29,0-3.55,1.64-4.56,2.44-1.2.95-3.43,3.04-4.67,3.93-1.16.85-3.68,2.28-4.98,2.88-.99.46-3.08,1.09-4.14,1.31-1.22.25-3.71.39-4.95.42-.94.02-2.82-.1-3.76-.24-.74-.1-2.21-.49-2.96-.47-.65.01-2.08-.42-2.54.52Z"/>
  <path class="st0" d="M35.56,62.21c-.27.2-.31,1.01-.24,1.34.11.51.55,1.47.81,1.91.48.82,1.54,2.4,2.12,3.15s1.83,2.2,2.52,2.86c.76.73,2.34,2.12,3.2,2.73.91.64,2.85,1.74,3.88,2.15.78.31,2.43.65,3.25.79s2.6.26,3.46.13c.51-.07,1.57-.53,1.78-1,.25-.53-.13-1.81-.45-2.31s-1.15-1.3-1.6-1.65c-.52-.4-1.6-1.16-2.18-1.47-.62-.33-1.92-.85-2.57-1.1-.98-.38-2.96-1.08-3.93-1.49-.79-.33-2.36-1.03-3.09-1.47s-2.03-1.42-2.67-1.94c-.35-.29-1.02-.88-1.36-1.18-.37-.32-1.06-1.04-1.49-1.28-.32-.18-1.15-.37-1.44-.16Z"/>
  <path class="st0" d="M34.17,65.01c.4-.02.96.77,1.15,1.13.42.78,1.06,2.44,1.47,3.23.44.86,1.46,2.53,2.05,3.3s1.93,2.14,2.62,2.81,2.13,1.85,2.91,2.39c.91.62,2.88,1.63,3.87,2.12.89.44,2.72,1.22,3.65,1.57.85.32,2.67.86,3.3,1.52.74.77.93,1.89.66,2.88-.4,1.46-.97,1.67-1.42,2.12-.38.38-1.34.94-1.86,1.1-.73.22-2.31.12-3.07,0-1.01-.16-2.91-.98-3.8-1.47-.8-.44-2.21-1.62-2.88-2.23-1-.91-2.76-2.95-3.59-4.01-.64-.81-1.76-2.55-2.28-3.43s-1.42-2.74-1.81-3.7c-.36-.9-.9-2.78-1.13-3.72-.19-.78-.43-2.37-.52-3.17-.05-.4-.1-1.23,0-1.63.06-.26.42-.8.68-.81Z"/>
  <path class="st0" d="M32.13,61.05c.35.27.36,1.29.31,1.73-.07.8-.47,2.37-.52,3.17-.07.99.02,2.98.16,3.96s.47,2.81.73,3.72c.29.99,1,2.94,1.44,3.88s1.51,2.8,2.02,3.72c.55,1,1.94,2.89,2.18,4.01.15.71.15,2.27-.24,2.88-.33.52-1.41,1.32-2.02,1.42-.75.12-2.33-.15-2.99-.52s-1.75-1.45-2.2-2.05-1.23-1.82-1.52-2.49c-.37-.85-.88-2.64-1.1-3.54-.27-1.11-.81-3.33-1-4.46s-.49-3.36-.55-4.48c-.04-.72-.06-2.17,0-2.88.07-.87.4-2.6.66-3.43s1-2.34,1.47-3.04c.3-.45,1.08-1.23,1.55-1.49.35-.2,1.3-.36,1.63-.1Z"/>
</svg>