<?xml version="1.0" encoding="UTF-8"?>
<svg id="Capa_1" xmlns="http://www.w3.org/2000/svg" version="1.1" viewBox="0 0 23 18.4">
  <!-- Generator: Adobe Illustrator 30.0.0, SVG Export Plug-In . SVG Version: 2.1.1 Build 123)  -->
  <defs>
    <style>
      .st0 {
        fill: none;
      }

      .st1 {
        fill: #fffdfd;
      }
    </style>
  </defs>
  <g id="logo">
    <g>
      <rect class="st0" x="-1.53" y="-2.34" width="20.69" height="20.69"/>
      <path class="st1" d="M11.16,10.69s-.14-.11-.14-.16c-.03-.25-.07-.39-.12-.51-.1-.23-.45-.6-.59-.81-.12-.18-.38-.79-.38-.79,0,0-.16-.51-.19-.68-.01-.11-.03-.34,0-.45.03-.14.15-.39.23-.51.09-.13.23-.32.43-.48.25-.21.83-.52,1.14-.62.22-.07.67-.21.89-.19.15.02.44.03.54.23.16.35.02.54-.05.7-.07.13-.27.36-.38.47-.16.16-.49.46-.63.62-.11.13-.31.42-.39.58-.06.13-.12.41-.13.55-.01.12,0,.37.03.5.02.15.13.43.14.58.01.13,0,.38-.03.51-.02.09-.09.27-.13.35-.02.04-.08.1-.12.12-.02.01-.08.01-.11,0h0Z"/>
      <path class="st1" d="M9.79,8.81c-.09.05-.25-.19-.33-.26-.14-.13-.47-.33-.64-.42-.21-.1-.64-.24-.85-.35-.18-.09-.54-.3-.66-.46-.08-.1-.21-.34-.23-.47-.04-.21-.03-.64,0-.85.02-.2.08-.59.14-.78.1-.31.34-.94.55-1.19.13-.16.46-.48.66-.52.1-.02.31,0,.39.06.1.07.26.29.28.41.04.18,0,.54-.05.72-.05.21-.21.61-.27.81-.05.18-.17.55-.17.74,0,.1.03.32.07.41.08.16.34.43.45.57.1.12.27.37.35.51.09.17.25.54.31.72.03.08.08.3,0,.34h0Z"/>
      <path class="st1" d="M10.5,10.8c-.06.04-.22.04-.29.03-.28-.06-.79-.3-1.04-.44-.23-.13-.69-.39-.89-.55-.2-.16-.58-.51-.73-.72-.13-.17-.41-.53-.44-.75-.01-.08.01-.28.08-.33.08-.06.3-.03.4,0,.29.08.85.32,1.12.46.21.11.63.33.82.47s.54.47.68.66c.11.15.3.48.35.66.02.09.05.28.03.37,0,.04-.05.11-.08.13h0Z"/>
      <path class="st1" d="M9.37,10.93c0,.09-.22.15-.3.16-.2.03-.59.05-.79.04-.21-.01-.62-.05-.83-.1-.26-.06-.77-.22-1.01-.34-.29-.15-.84-.51-1.09-.72-.22-.18-.64-.58-.82-.8-.19-.24-.54-.75-.68-1.02-.12-.24-.32-.73-.4-.98-.09-.27-.24-.82-.3-1.1-.05-.23-.13-.71-.16-.94-.03-.28-.09-.84-.06-1.11.02-.17.1-.51.19-.65.06-.1.25-.28.36-.31.13-.04.42,0,.54.08.26.14.66.53.89.8.19.24.47.74.55,1.02.07.26.18.78.23,1.04.05.23.13.7.19.93.06.21.18.63.27.83s.29.6.42.78c.14.2.44.58.61.75.19.2.6.57.82.74.14.1.42.29.57.38.12.07.36.19.47.25.09.05.34.17.32.28h0Z"/>
      <path class="st1" d="M9.59,11.37c.09.17-.13.33-.22.41-.12.12-.45.24-.61.28-.25.07-.75.22-1,.25-.31.04-.93.07-1.23.03-.36-.05-1.07-.23-1.39-.39-.22-.12-.63-.41-.8-.6-.1-.11-.28-.36-.35-.5-.08-.17-.2-.52-.24-.71-.03-.14,0-.39.08-.49.04-.05.14-.12.26-.12.22,0,.6.28.77.41.2.16.58.51.79.66.2.14.62.39.84.49.17.08.52.18.7.22.21.04.63.07.84.07.16,0,.48-.02.64-.04.13-.02.37-.08.5-.08.11,0,.35-.07.43.09h0Z"/>
      <path class="st1" d="M10.42,11.79s.05.17.04.23c-.02.09-.09.25-.14.32-.08.14-.26.41-.36.53s-.31.37-.43.48c-.13.12-.4.36-.54.46-.15.11-.48.29-.66.36-.13.05-.41.11-.55.13s-.44.04-.59.02c-.09-.01-.27-.09-.3-.17-.04-.09.02-.31.08-.39s.19-.22.27-.28c.09-.07.27-.2.37-.25.1-.06.32-.14.43-.19.17-.06.5-.18.66-.25.13-.06.4-.17.52-.25s.34-.24.45-.33c.06-.05.17-.15.23-.2.06-.05.18-.18.25-.22.05-.03.2-.06.24-.03h0Z"/>
      <path class="st1" d="M10.66,12.27c-.07,0-.16.13-.2.19-.07.13-.18.41-.25.54-.08.15-.25.43-.35.56s-.33.36-.44.47-.36.31-.49.4c-.15.11-.49.28-.65.36-.15.07-.46.21-.62.27-.14.05-.45.15-.56.26-.12.13-.16.32-.11.49.07.25.16.28.24.36.06.06.23.16.31.19.12.04.39.02.52,0,.17-.03.49-.17.64-.25.14-.07.37-.27.49-.38.17-.15.47-.5.61-.68.11-.14.3-.43.39-.58s.24-.46.31-.62c.06-.15.15-.47.19-.63.03-.13.07-.4.09-.54,0-.07.02-.21,0-.28-.01-.04-.07-.14-.12-.14h0Z"/>
      <path class="st1" d="M11,11.6c-.06.05-.06.22-.05.29.01.14.08.4.09.54.01.17,0,.5-.03.67s-.08.48-.12.63c-.05.17-.17.5-.24.66s-.25.47-.34.63c-.09.17-.33.49-.37.68-.02.12-.03.38.04.49.06.09.24.22.34.24.13.02.39-.03.51-.09s.3-.24.37-.35.21-.31.26-.42c.06-.14.15-.45.19-.6.05-.19.14-.56.17-.75s.08-.57.09-.76c0-.12.01-.37,0-.49-.01-.15-.07-.44-.11-.58s-.17-.39-.25-.51c-.05-.08-.18-.21-.26-.25-.06-.03-.22-.06-.28-.02h0Z"/>
    </g>
    <g>
      <path class="st1" d="M12.54,8.11h1.7v.48h-1.2v.61h1.18v.48h-1.18v1.1h-.5v-2.66h0Z"/>
      <path class="st1" d="M14.85,8.11h.5v2.18h1.21v.48h-1.71v-2.66h0Z"/>
      <path class="st1" d="M18.99,8.11v1.74c0,.3-.08.54-.24.72-.16.17-.4.26-.72.26s-.56-.09-.72-.26c-.16-.17-.24-.41-.24-.72v-1.74h.5v1.74c0,.16.04.28.11.37s.19.13.35.13.27-.04.35-.13c.07-.09.11-.21.11-.37v-1.74h.5Z"/>
      <path class="st1" d="M19.86,8.11l.45,1.09h.09l.45-1.09h.54l-.55,1.29v.07l.55,1.3h-.54l-.45-1.1h-.09l-.45,1.1h-.54l.55-1.3v-.07l-.55-1.29h.54Z"/>
      <path class="st1" d="M14.78,11.81s0-.09-.03-.12c-.02-.04-.04-.07-.08-.09s-.07-.04-.11-.05-.08-.02-.13-.02c-.04,0-.08,0-.11.02-.04.01-.07.02-.1.04-.03.02-.05.04-.07.07-.02.03-.02.06-.02.1h0c0,.05,0,.09.02.11.02.03.04.05.07.07.03.02.07.04.12.05s.1.02.17.03c.15.02.26.07.33.13.07.07.11.15.11.26v.02c0,.06-.01.12-.03.17s-.05.1-.09.13-.09.07-.16.09c-.06.02-.13.03-.21.03-.09,0-.17-.01-.24-.04-.07-.03-.13-.06-.18-.11s-.08-.1-.11-.17c-.02-.06-.04-.13-.04-.21v-.06h.17v.05c0,.13.03.22.1.28s.17.09.29.09c.11,0,.19-.02.24-.07.05-.05.08-.11.08-.19h0c0-.09-.03-.15-.08-.19-.06-.04-.15-.07-.27-.09-.07,0-.14-.02-.2-.04-.06-.02-.11-.05-.15-.08s-.07-.07-.09-.12-.03-.1-.03-.16v-.02c0-.06.01-.11.03-.15s.06-.09.1-.12c.04-.03.09-.06.15-.08.06-.02.12-.03.19-.03.08,0,.15.01.22.03.06.02.12.05.16.09.04.04.08.09.1.14s.03.11.03.17v.09h-.17v-.07h0Z"/>
      <path class="st1" d="M15.22,11.81h.32v-.42h.16v.42h.4v.15h-.4v.66s.02.06.06.06h.29v.15h-.35s-.08-.01-.11-.05-.04-.07-.04-.12v-.71h-.32v-.15h0Z"/>
      <path class="st1" d="M17.24,11.81h.16v1.02h-.16v-.19h-.02c-.03.07-.08.12-.13.16s-.12.06-.2.06c-.06,0-.11,0-.16-.03s-.09-.05-.12-.08c-.03-.04-.06-.08-.08-.14s-.03-.12-.03-.19v-.61h.16v.59c0,.11.02.19.07.23s.11.07.2.07c.1,0,.17-.03.23-.1s.08-.16.08-.27v-.53h0Z"/>
      <path class="st1" d="M18.57,12.68h-.02s-.04.06-.06.08-.05.04-.08.06-.06.03-.09.03c-.03,0-.06.01-.09.01-.07,0-.13-.01-.19-.03s-.11-.06-.16-.1c-.05-.04-.08-.1-.1-.16-.03-.07-.04-.14-.04-.22v-.03c0-.08.01-.16.04-.22.03-.07.06-.12.1-.16.04-.04.1-.08.15-.1s.12-.03.19-.03c.07,0,.14.02.2.05.06.03.11.08.14.14h.02v-.58h.16v1.44h-.16v-.16h0ZM18.22,12.71s.09,0,.13-.03.08-.04.11-.08c.03-.03.06-.07.07-.12s.03-.1.03-.15v-.02c0-.06,0-.11-.03-.15s-.04-.09-.07-.12c-.03-.03-.07-.06-.11-.08s-.09-.03-.13-.03-.09,0-.14.03c-.04.02-.08.04-.11.08s-.06.07-.07.12-.03.1-.03.15v.03c0,.06,0,.11.03.15s.04.08.07.12.07.06.11.07c.04.02.09.03.14.03h0Z"/>
      <path class="st1" d="M19.06,12.69h.36v-.73h-.32v-.15h.48v.87h.33v.15h-.85v-.15h0ZM19.35,11.51s.01-.07.04-.1.06-.04.1-.04.07.01.1.04.04.06.04.1-.01.07-.04.1-.06.04-.1.04-.07-.01-.1-.04-.04-.06-.04-.1Z"/>
      <path class="st1" d="M21.26,12.34c0,.09-.01.16-.04.23-.03.07-.07.12-.11.16-.05.04-.1.08-.16.1s-.13.03-.2.03-.13-.01-.2-.03-.12-.06-.16-.1c-.05-.04-.08-.1-.11-.16-.03-.07-.04-.14-.04-.23v-.02c0-.08.01-.16.04-.22.03-.07.07-.12.11-.17.05-.05.1-.08.16-.1s.13-.03.19-.03.13.01.19.03.12.06.16.1c.05.05.09.1.11.17s.04.14.04.22v.02h0ZM20.75,12.71s.09,0,.14-.03.08-.04.11-.08c.03-.03.06-.07.07-.12.02-.05.03-.1.03-.16v-.02c0-.06,0-.11-.03-.15-.02-.05-.04-.09-.07-.12-.03-.03-.07-.06-.11-.08s-.09-.03-.14-.03-.09,0-.14.03-.08.04-.11.08c-.03.03-.06.07-.07.12-.02.05-.03.1-.03.15v.02c0,.06,0,.11.03.16.02.05.04.09.07.12.03.03.07.06.11.08s.09.03.14.03h0Z"/>
    </g>
  </g>
</svg>