<?xml version="1.0" encoding="UTF-8"?>
<svg id="Capa_1" xmlns="http://www.w3.org/2000/svg" version="1.1" viewBox="0 0 300 300">
  <!-- Generator: Adobe Illustrator 29.8.2, SVG Export Plug-In . SVG Version: 2.1.1 Build 3)  -->
  <defs>
    <style>
      .st0 {
        fill: #fff;
        stroke: #fff;
        stroke-miterlimit: 10;
        stroke-width: .45px;
      }
    </style>
  </defs>
  <path class="st0" d="M81.55,170.65c1.05-.47,2.93-2.29,3.05-3.43.57-5.37,1.57-8.3,2.67-10.87,2.13-4.96,9.76-12.92,12.69-17.46,2.55-3.95,8.11-16.98,8.11-16.98,0,0,3.5-10.92,4.01-14.69.32-2.41.56-7.36,0-9.73-.7-2.93-3.25-8.49-4.96-10.97-1.97-2.85-4.9-6.84-9.16-10.4-5.36-4.48-17.9-11.19-24.52-13.45-4.64-1.58-14.31-4.61-19.17-4.01-3.13.39-9.52.71-11.54,5.06-3.47,7.44-.52,11.61,1.14,14.98,1.44,2.9,5.82,7.81,8.11,10.11,3.37,3.4,10.49,9.84,13.64,13.45,2.45,2.81,6.73,9.02,8.3,12.4,1.28,2.76,2.52,8.8,2.86,11.83.3,2.66-.12,8.05-.57,10.68-.54,3.15-2.7,9.23-3.05,12.4-.3,2.71.17,8.2.67,10.87.37,2,1.85,5.86,2.86,7.63.45.79,1.76,2.17,2.58,2.58.51.25,1.77.23,2.29,0Z"/>
  <path class="st0" d="M111.12,130.21c2.05.99,5.48-4.08,7.15-5.63,3.01-2.78,10.05-7.16,13.74-8.97,4.42-2.16,13.86-5.15,18.22-7.44,3.84-2.02,11.54-6.49,14.31-9.83,1.8-2.17,4.43-7.35,4.96-10.11.86-4.5.55-13.77,0-18.31-.52-4.23-1.73-12.73-3.05-16.79-2.19-6.71-7.35-20.2-11.83-25.66-2.89-3.52-9.87-10.24-14.31-11.26-2.07-.47-6.66.01-8.39,1.24-2.2,1.56-5.54,6.24-6.1,8.87-.81,3.79.13,11.69,1.05,15.45,1.09,4.47,4.51,13.05,5.82,17.46,1.17,3.92,3.64,11.84,3.72,15.93.04,2.25-.55,6.85-1.53,8.87-1.71,3.53-7.3,9.23-9.73,12.31-2.05,2.6-5.89,8.04-7.44,10.97-1.97,3.73-5.3,11.53-6.58,15.55-.56,1.75-1.65,6.54,0,7.35Z"/>
  <path class="st0" d="M95.76,172.94c1.32.82,4.68.92,6.2.57,5.93-1.35,17.09-6.51,22.42-9.44,4.94-2.72,14.82-8.31,19.24-11.83,4.3-3.43,12.37-11.05,15.68-15.45,2.8-3.74,8.85-11.49,9.44-16.12.23-1.8-.23-6.02-1.72-7.06-1.76-1.23-6.53-.6-8.59,0-6.24,1.83-18.26,6.95-24.04,9.92-4.5,2.31-13.54,7.02-17.55,10.11s-11.62,10.15-14.59,14.31c-2.35,3.29-6.49,10.4-7.54,14.31-.51,1.92-1.05,5.97-.67,7.92.16.8,1.02,2.34,1.72,2.77Z"/>
  <path class="st0" d="M120.08,175.8c.2,1.84,4.66,3.24,6.49,3.53,4.21.67,12.78,1.09,17.04.86,4.47-.24,13.42-1.15,17.77-2.19,5.56-1.34,16.55-4.76,21.65-7.35,6.28-3.18,18.15-10.94,23.56-15.45,4.73-3.94,13.77-12.39,17.65-17.17,4.16-5.13,11.68-16.07,14.69-21.94,2.61-5.09,6.91-15.73,8.68-21.18,1.89-5.83,5.22-17.66,6.49-23.66,1.06-5.04,2.83-15.2,3.34-20.32.6-5.96,1.97-17.99,1.24-23.94-.44-3.62-2.17-10.87-4.01-14.02-1.29-2.21-5.28-5.95-7.73-6.68-2.82-.83-9.06.21-11.64,1.62-5.65,3.1-14.31,11.35-19.17,17.27-4.19,5.09-10.18,16.03-11.92,22.04-1.61,5.52-3.92,16.79-5.06,22.42-1.01,4.98-2.72,15.02-4.01,19.94-1.18,4.54-3.89,13.54-5.77,17.84s-6.33,12.85-9.01,16.79c-2.94,4.3-9.43,12.49-13.07,16.22-4.15,4.25-12.99,12.26-17.74,15.83-2.95,2.21-9.12,6.26-12.31,8.11-2.5,1.45-7.65,4.09-10.21,5.44-2.04,1.07-7.21,3.72-6.96,6.01Z"/>
  <path class="st0" d="M115.41,185.25c-1.84,3.75,2.86,7.14,4.67,8.87,2.61,2.49,9.61,5.08,13.07,6.1,5.32,1.58,16.05,4.64,21.56,5.34,6.58.84,19.95,1.61,26.52.67,7.68-1.1,22.98-4.9,29.86-8.49,4.77-2.49,13.62-8.91,17.27-12.88,2.23-2.42,6.12-7.81,7.54-10.78,1.73-3.61,4.38-11.24,5.15-15.17.57-2.93.06-8.44-1.62-10.49-.96-1.17-3.02-2.49-5.53-2.48-4.7.02-12.91,5.96-16.6,8.87-4.36,3.44-12.49,11.05-16.98,14.31-4.24,3.08-13.37,8.3-18.12,10.49-3.59,1.66-11.2,3.96-15.07,4.77-4.42.92-13.49,1.42-18.01,1.53-3.42.08-10.27-.38-13.66-.86-2.7-.38-8.05-1.78-10.78-1.72-2.36.05-7.57-1.53-9.25,1.91Z"/>
  <path class="st0" d="M97.48,194.41c-.99.74-1.12,3.66-.86,4.86.41,1.85,2,5.33,2.96,6.96,1.74,2.98,5.59,8.74,7.73,11.45s6.67,7.99,9.16,10.4c2.75,2.66,8.52,7.71,11.64,9.92,3.29,2.33,10.38,6.31,14.12,7.82,2.82,1.14,8.83,2.35,11.83,2.86,3.11.53,9.47.93,12.59.48,1.84-.27,5.7-1.94,6.49-3.62.9-1.94-.47-6.6-1.62-8.39-1.13-1.76-4.17-4.72-5.82-6.01-1.88-1.47-5.81-4.22-7.92-5.34-2.25-1.19-6.98-3.09-9.35-4.01-3.57-1.38-10.79-3.94-14.31-5.44-2.87-1.22-8.59-3.73-11.26-5.34-2.57-1.55-7.4-5.16-9.73-7.06-1.27-1.04-3.72-3.22-4.96-4.29-1.35-1.18-3.87-3.8-5.44-4.67-1.15-.65-4.19-1.36-5.25-.57Z"/>
  <path class="st0" d="M92.42,204.61c1.47-.07,3.5,2.81,4.2,4.1,1.53,2.84,3.87,8.87,5.34,11.73,1.62,3.14,5.32,9.19,7.44,12.02s7.02,7.78,9.54,10.21c2.46,2.38,7.76,6.75,10.59,8.68,3.31,2.27,10.49,5.94,14.09,7.73,3.24,1.61,9.9,4.45,13.29,5.72,3.1,1.16,9.73,3.14,12.02,5.53,2.68,2.8,3.37,6.87,2.38,10.49-1.44,5.31-3.52,6.08-5.15,7.73-1.39,1.4-4.89,3.44-6.77,4.01-2.67.81-8.41.45-11.16,0-3.66-.6-10.58-3.57-13.83-5.34-2.91-1.59-8.04-5.88-10.49-8.11-3.62-3.3-10.04-10.75-13.07-14.59-2.32-2.95-6.4-9.27-8.3-12.5s-5.18-9.98-6.58-13.45c-1.33-3.28-3.27-10.11-4.1-13.55-.68-2.84-1.55-8.64-1.91-11.54-.18-1.47-.35-4.48,0-5.91.23-.94,1.52-2.91,2.48-2.96Z"/>
  <path class="st0" d="M84.98,190.21c1.26.98,1.29,4.7,1.14,6.3-.27,2.91-1.69,8.63-1.91,11.54-.27,3.59.08,10.83.57,14.4s1.7,10.23,2.67,13.55c1.06,3.61,3.65,10.71,5.25,14.12s5.48,10.18,7.35,13.55c2.01,3.63,7.07,10.53,7.92,14.59.54,2.58.56,8.27-.86,10.49-1.2,1.89-5.13,4.8-7.35,5.15-2.73.43-8.47-.55-10.87-1.91-2.38-1.34-6.36-5.26-8.01-7.44s-4.48-6.63-5.53-9.06c-1.34-3.09-3.19-9.61-4.01-12.88-1-4.03-2.93-12.12-3.62-16.22s-1.78-12.21-2-16.31c-.14-2.62-.22-7.88,0-10.49.27-3.17,1.45-9.45,2.38-12.5s3.64-8.5,5.34-11.07c1.08-1.63,3.93-4.47,5.63-5.44,1.29-.73,4.75-1.29,5.91-.38Z"/>
</svg>